<svg version="1.2" xmlns="http://www.w3.org/2000/svg" viewBox="0 0 207 209" width="60" height="61">
    <LinearGradient id="gradient">
        <stop id="stop1" offset="0%" stop-color="#8e47c6"></stop>
        <stop id="stop2" offset="100%" stop-color="#a847ba"></stop>
    </LinearGradient>
    <path fill-rule="evenodd"
        d="m174.6 36.4l0.2 0.1c39.6 37.9 41.2 100.7 3.4 140.4-37.8 39.7-100.5 41.4-140.3 3.7l-0.2-0.1-36.3-34.6 51.3-54.1 26.5 25.2 34.4-36.2-26.4-25.2 51.1-53.7zm-21.2 69.3c-1 0.5-2.5 1.5-3.4 2.1-0.8 0.6-4.2 3.9-7.5 7.2l-6 6.1c2 0 3.5 0.1 4.5 0.3 1.1 0.2 2.9 0.6 4.2 1.1l2.2 0.7c6.8-6.9 9.3-9.1 9.9-9.4 0.8-0.4 1.7-0.5 3.7-0.5 2.1 0 2.8 0.1 3.8 0.6 0.7 0.3 1.7 1.1 2.3 1.8 0.6 0.6 1.3 1.6 1.6 2.1 0.4 0.8 0.5 1.7 0.5 3.7 0 2.2-0.1 2.9-0.6 3.9-0.4 0.6-4.9 5.4-10.2 10.6-8.2 8.2-9.7 9.6-11 10.1-0.8 0.3-2.2 0.5-3.1 0.5-0.9 0-2.2-0.2-2.8-0.4-0.7-0.2-1.8-0.9-2.5-1.4-0.7-0.6-1.5-1-2-1-0.6 0-1.5 0.7-3.4 2.6-1.5 1.4-2.6 2.8-2.6 3 0 0.2 0.8 1 1.7 1.8 0.9 0.8 2.5 2 3.6 2.5 1.1 0.6 2.8 1.2 3.8 1.5 1.5 0.4 2.7 0.5 5.1 0.4 2.2-0.1 3.6-0.4 5-0.9 1-0.4 2.6-1.1 3.5-1.7 1-0.6 5.5-4.8 10.9-10.2 5.1-5 9.8-10 10.5-10.9 0.7-1 1.7-2.6 2.1-3.6 0.4-1 0.9-2.7 1.1-3.8 0.2-1.2 0.3-3 0.2-4.3-0.1-1.2-0.5-3.1-0.9-4.3-0.4-1.1-1.3-3.1-2.2-4.3-0.8-1.2-2.2-2.8-3.2-3.6-1-0.8-2.6-1.8-3.7-2.3-1.1-0.5-2.8-1.1-3.8-1.3-1.1-0.3-2.8-0.4-3.9-0.4-1 0-2.7 0.2-3.7 0.4-0.9 0.2-2.6 0.8-3.7 1.3zm-23.6 23.7c-0.7 0.3-2.1 1.2-3.1 1.9-1 0.7-5.8 5.4-10.8 10.4-5.4 5.4-9.5 9.8-10.2 10.8-0.6 1-1.5 2.8-1.9 4-0.6 1.8-0.7 2.8-0.7 5.5 0 2.6 0.1 3.6 0.7 5.5 0.4 1.2 1.4 3.1 2.2 4.4 0.9 1.2 2.3 2.8 3.3 3.6 1 0.8 2.4 1.7 3.2 2.1 0.8 0.4 2.2 1 3 1.3 1.1 0.3 2.4 0.5 5 0.5 3 0 3.8-0.1 5.6-0.7 1.2-0.4 3-1.4 4.2-2.2 1.2-0.8 4.4-3.7 8.3-7.7l6.4-6.4c-2.1 0-3.4-0.1-4.4-0.3-1-0.1-2.8-0.6-4.1-1l-2.4-0.8c-6.9 6.9-9.3 9.1-9.9 9.4-0.6 0.3-2 0.6-3.3 0.6-1.6 0.1-2.5 0-3.5-0.4-0.7-0.2-1.9-1-2.6-1.7-0.7-0.6-1.6-1.7-1.9-2.4-0.5-0.9-0.7-1.7-0.7-3.8 0-2.2 0.2-2.9 0.7-3.8 0.3-0.7 4.9-5.5 10.2-10.7 8.2-8.2 9.7-9.6 11-10.1 0.8-0.3 2.2-0.5 3.1-0.5 0.9 0 2.1 0.2 2.8 0.4 0.6 0.3 1.7 0.9 2.4 1.4 0.8 0.6 1.6 1 2.1 1 0.6 0 1.4-0.6 3.4-2.6 1.4-1.4 2.6-2.7 2.6-2.9 0-0.2-0.8-1.1-1.7-1.9-0.9-0.8-2.6-1.9-3.6-2.5-1.1-0.5-2.8-1.2-3.7-1.4-1-0.3-2.9-0.5-4.5-0.5-1.4 0-3.3 0.2-4.2 0.5-0.9 0.2-2.3 0.7-3 1z"
        fill="url(#gradient)" />
</svg>